<svg width="150" height="75" viewBox="0 0 150 75" fill="none" xmlns="http://www.w3.org/2000/svg">
<path d="M132.5 43.5L133.5 43L133.401 35.0863C133.401 33.8725 132.309 32.8794 130.974 32.8794H123.041V35.0863H130.974L131 42.5L124.5 43L121.5 47.5C120.165 47.5 119 47.2862 119 48.5L118.5 51L118.193 53.4828H23.6265C20.541 53.5 17.4332 52.7172 17.5 51L16.5 49L16.5331 46.6752L18.5 44L20.108 42.5L20.1078 35.0863H108.93L105.776 37.9552L107.474 39.5001L113.541 33.9828L107.474 28.4656L105.776 30.0104L108.93 32.8794H20.1078C18.7731 32.8794 17.6811 33.8725 17.6811 35.0863L17.681 43.5L16 45L15 47L15.5 50.2828L16.5 51.5C17 52 17.5 52.5 17.681 53C18.5 53.5 18.5 54 19 54C19.3169 54 24 54 26 55.6897H118.193L119 54.5C119 55.7138 117.665 53.5 119 53.5L119.5 50C119.5 49.5 120 49.7138 120 48.5L125 43.5C125 42.2862 133.835 43.5 132.5 43.5Z" fill="#DBFF00"/>
<path d="M123.817 42.686C125.266 41.5885 127.036 40.9966 128.854 41.0009C129.481 40.9869 130.103 41.1314 130.66 41.4211C131.217 41.7108 131.692 42.1364 132.041 42.6584C132.39 42.1364 132.865 41.7108 133.422 41.4211C133.979 41.1314 134.601 40.9869 135.229 41.0009C137.046 40.9966 138.816 41.5885 140.265 42.686C141.38 43.553 142.241 44.7536 142.545 46.2049C143.242 46.258 143.879 46.547 144.415 46.9826C145.227 47.6414 145.817 48.6295 146.189 49.6749C146.772 51.3005 146.929 53.3723 146.325 55.136C146.478 55.2083 146.629 55.2933 146.776 55.391C147.36 55.7799 147.804 56.3366 148.132 56.9932C148.775 58.2788 149.041 60.0723 149.041 62.2504C149.041 64.6749 148.117 66.3026 146.944 67.3077C146.295 67.8639 145.529 68.2669 144.704 68.4871C144.491 69.6728 143.896 71.0455 142.964 72.21C141.752 73.7293 139.874 75 137.354 75C135.356 75 133.767 73.895 132.734 72.8113C132.487 72.5526 132.256 72.2794 132.041 71.9932C131.827 72.2794 131.595 72.5526 131.348 72.8113C130.316 73.895 128.728 75 126.729 75C124.208 75 122.332 73.7293 121.119 72.21C120.247 71.1274 119.65 69.8502 119.378 68.4871C118.553 68.2669 117.787 67.8639 117.138 67.3077C115.965 66.3026 115.041 64.6728 115.041 62.2504C115.041 60.0723 115.309 58.2767 115.951 56.9932C116.255 56.3493 116.722 55.7962 117.306 55.3889C117.45 55.2939 117.6 55.2101 117.757 55.1382C117.153 53.3702 117.311 51.3005 117.893 49.6749C118.265 48.6295 118.855 47.6414 119.667 46.9826C120.203 46.547 120.84 46.2602 121.537 46.2049C121.843 44.7536 122.702 43.553 123.817 42.686ZM130.979 46.3133V46.292L130.974 46.1858C130.943 45.6318 130.833 45.0852 130.647 44.5623C130.515 44.1677 130.29 43.8105 129.99 43.5211C129.677 43.2478 129.269 43.1062 128.854 43.1259C127.508 43.1213 126.198 43.5555 125.122 44.3626C124.136 45.1297 123.541 46.1688 123.541 47.3758C123.541 47.544 123.501 47.7098 123.424 47.8596C123.347 48.0093 123.236 48.1387 123.1 48.237C122.963 48.3354 122.805 48.3999 122.639 48.4253C122.472 48.4507 122.302 48.4362 122.143 48.383C121.743 48.2512 121.386 48.3256 121.006 48.6316C120.589 48.9716 120.184 49.5751 119.892 50.3889C119.3 52.0506 119.361 54.063 120.175 55.2869C120.291 55.4612 120.353 55.666 120.354 55.8755H121.947C123.215 55.8755 124.431 56.3793 125.328 57.2759C126.225 58.1725 126.729 59.3886 126.729 60.6566V61.3685C127.437 61.6191 128.035 62.1123 128.415 62.7608C128.796 63.4094 128.935 64.1716 128.808 64.9126C128.68 65.6537 128.295 66.3259 127.721 66.8106C127.146 67.2952 126.418 67.561 125.666 67.561C124.914 67.561 124.186 67.2952 123.612 66.8106C123.037 66.3259 122.652 65.6537 122.524 64.9126C122.397 64.1716 122.536 63.4094 122.917 62.7608C123.297 62.1123 123.895 61.6191 124.604 61.3685V60.6566C124.604 59.1904 123.414 58.0005 121.947 58.0005H118.229C118.101 58.0003 117.976 57.9772 117.857 57.9325L117.85 57.9452C117.43 58.7846 117.166 60.1785 117.166 62.2504C117.166 64.0757 117.835 65.1041 118.522 65.6928C119.259 66.326 120.077 66.5002 120.354 66.5002C120.635 66.5002 120.906 66.6122 121.105 66.8114C121.304 67.0107 121.416 67.2809 121.416 67.5627C121.416 68.3447 121.841 69.711 122.776 70.884C123.688 72.0208 124.999 72.8751 126.729 72.8751C127.919 72.8751 128.985 72.21 129.81 71.3451C130.216 70.9201 130.532 70.4802 130.738 70.119C130.832 69.9588 130.913 69.7911 130.979 69.6175V52.6881H128.673C128.422 53.397 127.929 53.9945 127.281 54.3749C126.632 54.7554 125.87 54.8943 125.129 54.7672C124.388 54.64 123.715 54.255 123.231 53.6801C122.746 53.1052 122.48 52.3775 122.48 51.6256C122.48 50.8737 122.746 50.1461 123.231 49.5712C123.715 48.9963 124.388 48.6113 125.129 48.4841C125.87 48.357 126.632 48.4959 127.281 48.8764C127.929 49.2568 128.422 49.8543 128.673 50.5632H130.979V46.3133ZM133.104 67.5606V69.6154C133.17 69.7889 133.25 69.9567 133.344 70.1169C133.552 70.4781 133.866 70.918 134.27 71.343C135.097 72.2078 136.166 72.8729 137.354 72.8729C139.083 72.8729 140.394 72.0187 141.306 70.8819C142.241 69.7089 142.666 68.3426 142.666 67.5606C142.666 67.2788 142.778 67.0086 142.977 66.8093C143.176 66.61 143.447 66.4981 143.729 66.4981C144.005 66.4981 144.823 66.3239 145.56 65.6906C146.247 65.102 146.916 64.0736 146.916 62.2482C146.916 60.1764 146.65 58.7846 146.232 57.9431C146.092 57.6298 145.872 57.3587 145.594 57.1569C145.355 57.0039 145.075 56.9276 144.791 56.938C144.599 56.9379 144.41 56.8857 144.245 56.7869C144.081 56.6881 143.946 56.5464 143.855 56.377C143.764 56.2076 143.721 56.0167 143.73 55.8248C143.739 55.6328 143.801 55.4469 143.907 55.2869C144.723 54.063 144.783 52.0506 144.19 50.3889C143.899 49.5751 143.493 48.9695 143.076 48.6316C142.696 48.3256 142.339 48.2491 141.939 48.383C141.78 48.4362 141.61 48.4507 141.443 48.4253C141.277 48.3999 141.119 48.3354 140.982 48.237C140.846 48.1387 140.735 48.0093 140.658 47.8596C140.581 47.7098 140.541 47.544 140.541 47.3758C140.541 46.1688 139.946 45.1297 138.958 44.3626C137.882 43.5559 136.573 43.1217 135.229 43.1259C134.813 43.1062 134.406 43.2478 134.092 43.5211C133.792 43.8102 133.566 44.1674 133.433 44.5623C133.231 45.1174 133.119 45.7015 133.104 46.292V65.4378H134.697C136.164 65.4378 137.354 64.2478 137.354 62.7816V58.8823C136.645 58.6317 136.047 58.1385 135.667 57.49C135.286 56.8414 135.147 56.0793 135.274 55.3382C135.402 54.5971 135.787 53.9249 136.362 53.4402C136.936 52.9556 137.664 52.6898 138.416 52.6898C139.168 52.6898 139.896 52.9556 140.471 53.4402C141.045 53.9249 141.43 54.5971 141.558 55.3382C141.685 56.0793 141.546 56.8414 141.165 57.49C140.785 58.1385 140.187 58.6317 139.479 58.8823V62.7816C139.479 64.0496 138.975 65.2657 138.078 66.1623C137.181 67.059 135.965 67.5627 134.697 67.5627H133.104V67.5606ZM124.604 51.6256C124.604 51.9074 124.715 52.1777 124.915 52.3769C125.114 52.5762 125.384 52.6881 125.666 52.6881C125.948 52.6881 126.218 52.5762 126.417 52.3769C126.617 52.1777 126.729 51.9074 126.729 51.6256C126.729 51.3439 126.617 51.0736 126.417 50.8744C126.218 50.6751 125.948 50.5632 125.666 50.5632C125.384 50.5632 125.114 50.6751 124.915 50.8744C124.715 51.0736 124.604 51.3439 124.604 51.6256ZM138.416 56.938C138.698 56.938 138.968 56.8261 139.167 56.6268C139.367 56.4276 139.479 56.1573 139.479 55.8755C139.479 55.5937 139.367 55.3235 139.167 55.1242C138.968 54.925 138.698 54.8131 138.416 54.8131C138.134 54.8131 137.864 54.925 137.665 55.1242C137.465 55.3235 137.354 55.5937 137.354 55.8755C137.354 56.1573 137.465 56.4276 137.665 56.6268C137.864 56.8261 138.134 56.938 138.416 56.938ZM125.666 63.3128C125.384 63.3128 125.114 63.4248 124.915 63.624C124.715 63.8233 124.604 64.0935 124.604 64.3753C124.604 64.6571 124.715 64.9273 124.915 65.1266C125.114 65.3258 125.384 65.4378 125.666 65.4378C125.948 65.4378 126.218 65.3258 126.417 65.1266C126.617 64.9273 126.729 64.6571 126.729 64.3753C126.729 64.0935 126.617 63.8233 126.417 63.624C126.218 63.4248 125.948 63.3128 125.666 63.3128Z" fill="#DBFF00"/>
<path d="M33.5829 29L32.0318 24.1948H24.1853L22.6343 29H20.0492L26.9225 8.31931H29.4163L36.32 29H33.5829ZM26.1014 18.2339L24.9457 21.7922H31.2411L30.0854 18.2339L28.1086 11.8472L26.1014 18.2339ZM51.1356 29L49.5845 24.1948H41.738L40.187 29H37.6019L44.4752 8.31931H46.969L53.8727 29H51.1356ZM43.654 18.2339L42.4984 21.7922H48.7938L47.6381 18.2339L45.6613 11.8472L43.654 18.2339ZM55.3371 29.2129V26.6886C56.9793 26.6886 58.1756 26.3541 58.9258 25.685C59.6962 25.0159 60.0815 23.8501 60.0815 22.1875V8.31931H62.7274V22.1875C62.7274 23.5663 62.5043 24.7929 62.0583 25.8675C61.6325 26.9218 60.8823 27.7429 59.8077 28.3309C58.7534 28.9189 57.2632 29.2129 55.3371 29.2129ZM79.2912 29L77.7401 24.1948H69.8936L68.3426 29H65.7575L72.6308 8.31931H75.1246L82.0283 29H79.2912ZM71.8096 18.2339L70.6539 21.7922H76.9494L75.7937 18.2339L73.8169 11.8472L71.8096 18.2339Z" fill="#DBFF00"/>
<path d="M33.6775 62.6252V75H16.8388V62.6252H21.0484V58.5003H29.4678V62.6252H33.6775ZM23.1533 62.6252H27.363V60.5627H23.1533V62.6252ZM31.5727 68.8126H29.4678V70.8751H27.363V68.8126H23.1533V70.8751H21.0484V68.8126H18.9436V72.9375H31.5727V68.8126ZM31.5727 64.6877H18.9436V66.7501H31.5727V64.6877ZM25.735 56.4378C25.143 55.7825 24.4414 55.2776 23.6302 54.9232C22.8189 54.5687 21.9583 54.3861 21.0484 54.3753C20.1714 54.3753 19.3547 54.5364 18.5983 54.8587C17.8418 55.181 17.1731 55.6214 16.5921 56.18C16.0111 56.7386 15.5561 57.3992 15.2272 58.1619C14.8983 58.9246 14.7339 59.7248 14.7339 60.5627C14.7339 61.551 14.5092 62.4802 14.0597 63.3503C13.6102 64.2204 12.9744 64.9508 12.1522 65.5416C12.6455 65.7887 13.1059 66.0734 13.5335 66.3956C13.961 66.7179 14.3612 67.0831 14.7339 67.4913V72.9375C14.7339 72.0889 14.5695 71.2886 14.2406 70.5367C13.9117 69.7847 13.4622 69.1295 12.8922 68.5709C12.3221 68.0123 11.6479 67.5665 10.8695 67.2335C10.0912 66.9005 9.27447 66.7394 8.41938 66.7501C7.54236 66.7501 6.72563 66.9113 5.96921 67.2335C5.21278 67.5558 4.54405 67.9962 3.96303 68.5548C3.382 69.1134 2.92705 69.774 2.59817 70.5367C2.26928 71.2994 2.10484 72.0997 2.10484 72.9375H0C0 72.1534 0.109627 71.3961 0.328882 70.6656C0.548136 69.9351 0.860574 69.2423 1.2662 68.587C1.67182 67.9317 2.16514 67.3517 2.74616 66.8468C3.32719 66.3419 3.97399 65.9069 4.68657 65.5416C3.87532 64.9616 3.24497 64.2365 2.7955 63.3664C2.34602 62.4963 2.11581 61.5617 2.10484 60.5627C2.10484 59.7141 2.26928 58.9138 2.59817 58.1619C2.92705 57.4099 3.37652 56.7547 3.94658 56.1961C4.51664 55.6375 5.18537 55.1917 5.95276 54.8587C6.72015 54.5257 7.54236 54.3646 8.41938 54.3753C9.42795 54.3753 10.3762 54.5955 11.2642 55.0359C12.1522 55.4764 12.8977 56.0994 13.5006 56.9051C13.9172 56.0994 14.4489 55.3797 15.0957 54.7459C15.7425 54.1121 16.4825 53.5858 17.3156 53.1668C16.5044 52.5868 15.874 51.8617 15.4246 50.9916C14.9751 50.1215 14.7449 49.1869 14.7339 48.1879C14.7339 47.3393 14.8983 46.539 15.2272 45.7871C15.5561 45.0351 16.0056 44.3799 16.5756 43.8213C17.1457 43.2627 17.8144 42.8169 18.5818 42.4839C19.3492 42.1509 20.1714 41.9898 21.0484 42.0005C21.9145 42.0005 22.7312 42.1616 23.4986 42.4839C24.266 42.8062 24.9347 43.2466 25.5048 43.8052C26.0749 44.3637 26.5298 45.0244 26.8696 45.7871C27.2095 46.5498 27.3739 47.35 27.363 48.1879C27.363 49.1762 27.1382 50.1054 26.6888 50.9755C26.2393 51.8456 25.6035 52.576 24.7812 53.1668C25.5267 53.5321 26.2009 53.9886 26.8039 54.5364C27.4068 55.0843 27.9166 55.7181 28.3332 56.4378H25.735ZM8.41938 64.6877C9.0004 64.6877 9.54306 64.5802 10.0473 64.3654C10.5516 64.1506 11.0011 63.8552 11.3958 63.4792C11.7904 63.1032 12.0919 62.6682 12.3002 62.174C12.5085 61.6799 12.6181 61.1428 12.6291 60.5627C12.6291 59.9934 12.5194 59.4617 12.3002 58.9675C12.0809 58.4734 11.7795 58.033 11.3958 57.6463C11.0121 57.2595 10.5681 56.9641 10.0638 56.76C9.5595 56.5559 9.01136 56.4485 8.41938 56.4378C7.83835 56.4378 7.2957 56.5452 6.79141 56.76C6.28712 56.9749 5.83765 57.2703 5.44299 57.6463C5.04834 58.0222 4.74686 58.4573 4.53857 58.9514C4.33028 59.4455 4.22065 59.9827 4.20969 60.5627C4.20969 61.132 4.31932 61.6638 4.53857 62.1579C4.75782 62.652 5.0593 63.0925 5.44299 63.4792C5.82669 63.8659 6.27068 64.1613 6.77497 64.3654C7.27925 64.5695 7.82739 64.6769 8.41938 64.6877ZM16.8388 48.1879C16.8388 48.7572 16.9484 49.289 17.1676 49.7831C17.3869 50.2772 17.6884 50.7177 18.0721 51.1044C18.4558 51.4911 18.8997 51.7865 19.404 51.9906C19.9083 52.1947 20.4565 52.3021 21.0484 52.3128C21.6295 52.3128 22.1721 52.2054 22.6764 51.9906C23.1807 51.7757 23.6302 51.4803 24.0248 51.1044C24.4195 50.7284 24.721 50.2933 24.9292 49.7992C25.1375 49.3051 25.2472 48.768 25.2581 48.1879C25.2581 47.6186 25.1485 47.0869 24.9292 46.5927C24.71 46.0986 24.4085 45.6582 24.0248 45.2714C23.6411 44.8847 23.1971 44.5893 22.6929 44.3852C22.1886 44.1811 21.6404 44.0737 21.0484 44.063C20.4674 44.063 19.9248 44.1704 19.4205 44.3852C18.9162 44.6001 18.4667 44.8955 18.0721 45.2714C17.6774 45.6474 17.3759 46.0825 17.1676 46.5766C16.9593 47.0707 16.8497 47.6078 16.8388 48.1879Z" fill="#DBFF00"/>
<path d="M36.4943 67L37.4511 61.5783H38.966C39.4656 61.5783 39.835 61.7139 40.0742 61.9849C40.3134 62.256 40.3958 62.6122 40.3214 63.0533L40.2895 63.2367C40.2151 63.6992 39.9679 64.0314 39.548 64.2333C39.7819 64.345 39.9493 64.5097 40.0503 64.7277C40.1513 64.9403 40.1779 65.1848 40.13 65.4612L40.1061 65.6446C40.037 66.0698 39.8643 66.402 39.5879 66.6412C39.3115 66.8804 38.9075 67 38.376 67H36.4943ZM38.9341 62.2162H38.0331L37.7302 63.9304H38.6311C38.8969 63.9304 39.1095 63.8692 39.269 63.747C39.4284 63.6247 39.5268 63.4573 39.564 63.2447L39.6038 63.0533C39.6463 62.7929 39.6118 62.5882 39.5002 62.4394C39.3886 62.2906 39.1999 62.2162 38.9341 62.2162ZM38.7188 64.5682H37.6185L37.2996 66.3701H38.3999C38.6816 66.3701 38.9075 66.3063 39.0776 66.1788C39.2477 66.0459 39.3513 65.8652 39.3886 65.6366L39.4204 65.4453C39.463 65.1795 39.4258 64.9669 39.3088 64.8074C39.1919 64.6479 38.9952 64.5682 38.7188 64.5682ZM44.5227 64.9429L44.4589 65.3416C44.3739 65.905 44.1719 66.3356 43.853 66.6332C43.5394 66.9309 43.1301 67.0797 42.6251 67.0797C42.253 67.0797 41.9447 66.9947 41.7002 66.8246C41.461 66.6545 41.2936 66.4206 41.1979 66.123C41.1023 65.8253 41.0837 65.4878 41.1421 65.1104L41.2059 64.7038C41.2963 64.1616 41.4956 63.739 41.8039 63.436C42.1175 63.1277 42.5294 62.9736 43.0397 62.9736C43.4171 62.9736 43.7254 63.0613 43.9646 63.2367C44.2038 63.4121 44.3712 63.6487 44.4669 63.9463C44.5626 64.2387 44.5812 64.5709 44.5227 64.9429ZM43.845 64.927C43.9088 64.5284 43.8716 64.2041 43.7334 63.9543C43.5952 63.6992 43.3613 63.5716 43.0317 63.5716C42.7235 63.5716 42.4683 63.6699 42.2663 63.8666C42.0697 64.0633 41.9421 64.3423 41.8836 64.7038L41.8198 65.1263C41.7561 65.5356 41.7933 65.8652 41.9315 66.115C42.075 66.3648 42.3089 66.4897 42.6331 66.4897C42.9414 66.4897 43.1939 66.394 43.3905 66.2027C43.5925 66.006 43.7227 65.719 43.7812 65.3416L43.845 64.927ZM48.8518 64.9429L48.788 65.3416C48.703 65.905 48.501 66.3356 48.1821 66.6332C47.8685 66.9309 47.4592 67.0797 46.9542 67.0797C46.5822 67.0797 46.2739 66.9947 46.0294 66.8246C45.7902 66.6545 45.6227 66.4206 45.5271 66.123C45.4314 65.8253 45.4128 65.4878 45.4712 65.1104L45.535 64.7038C45.6254 64.1616 45.8247 63.739 46.133 63.436C46.4466 63.1277 46.8586 62.9736 47.3688 62.9736C47.7462 62.9736 48.0545 63.0613 48.2937 63.2367C48.5329 63.4121 48.7003 63.6487 48.796 63.9463C48.8917 64.2387 48.9103 64.5709 48.8518 64.9429ZM48.1741 64.927C48.2379 64.5284 48.2007 64.2041 48.0625 63.9543C47.9243 63.6992 47.6904 63.5716 47.3609 63.5716C47.0526 63.5716 46.7974 63.6699 46.5955 63.8666C46.3988 64.0633 46.2712 64.3423 46.2127 64.7038L46.149 65.1263C46.0852 65.5356 46.1224 65.8652 46.2606 66.115C46.4041 66.3648 46.638 66.4897 46.9622 66.4897C47.2705 66.4897 47.523 66.394 47.7197 66.2027C47.9216 66.006 48.0519 65.719 48.1103 65.3416L48.1741 64.927ZM50.7412 66.4977C51.0495 66.4977 51.2701 66.4445 51.403 66.3382C51.5412 66.2319 51.6103 66.0937 51.6103 65.9236C51.6103 65.7854 51.5677 65.6738 51.4827 65.5888C51.3976 65.5037 51.2541 65.424 51.0521 65.3496L50.6694 65.1981C50.3984 65.0971 50.1937 64.9616 50.0555 64.7915C49.9226 64.6214 49.8562 64.4061 49.8562 64.1456C49.8562 63.933 49.9014 63.739 49.9917 63.5636C50.0874 63.3882 50.2389 63.2473 50.4462 63.141C50.6535 63.0294 50.9246 62.9736 51.2594 62.9736C51.6687 62.9736 52.0833 63.0693 52.5032 63.2606L52.2959 63.8187C52.1046 63.7284 51.9239 63.6646 51.7538 63.6274C51.5837 63.5849 51.4136 63.5636 51.2435 63.5636C50.983 63.5636 50.7943 63.6114 50.6774 63.7071C50.5658 63.8028 50.51 63.933 50.51 64.0978C50.51 64.2147 50.5445 64.3157 50.6136 64.4008C50.688 64.4858 50.813 64.5629 50.9884 64.632L51.379 64.7755C51.6714 64.8818 51.892 65.02 52.0408 65.1901C52.1896 65.3602 52.264 65.5808 52.264 65.8519C52.264 66.0592 52.2136 66.2585 52.1126 66.4499C52.0116 66.6359 51.8468 66.7874 51.6182 66.9043C51.395 67.0213 51.0973 67.0797 50.7252 67.0797C50.2841 67.0797 49.8402 66.9814 49.3937 66.7847L49.601 66.2346C49.8083 66.3249 50.005 66.3914 50.1911 66.4339C50.3771 66.4764 50.5605 66.4977 50.7412 66.4977ZM55.3386 66.8645C54.9984 67.008 54.6768 67.0797 54.3739 67.0797C54.1028 67.0797 53.8928 67.0213 53.744 66.9043C53.5952 66.7821 53.4995 66.6253 53.457 66.4339C53.4144 66.2426 53.4118 66.0379 53.449 65.82L53.8317 63.6274H53.146L53.2417 63.0533H53.9353L54.1267 61.9531H54.7805L54.5891 63.0533H55.8808L55.7771 63.6274H54.4855L54.0948 65.82C54.0523 66.0645 54.0709 66.2372 54.1506 66.3382C54.2303 66.4339 54.3473 66.4818 54.5014 66.4818C54.5865 66.4818 54.6875 66.4711 54.8044 66.4499C54.9267 66.4233 55.0569 66.3781 55.1951 66.3143L55.3386 66.8645ZM57.7452 62.0886H57.0116L57.1312 61.3551H57.8648L57.7452 62.0886ZM56.8283 67H56.1745L56.8761 63.0533H57.5299L56.8283 67ZM60.7731 63.5875C60.6721 63.5875 60.5551 63.6114 60.4222 63.6593C60.2894 63.7018 60.1352 63.7869 59.9598 63.9144C59.7844 64.0367 59.5824 64.2201 59.3538 64.4646L58.8994 67H58.2456L58.9472 63.0533H59.5611L59.4415 63.7789C59.7552 63.4493 60.0342 63.2341 60.2787 63.1331C60.5285 63.0268 60.7518 62.9736 60.9485 62.9736C61.3099 62.9736 61.5757 63.1065 61.7458 63.3723C61.9212 63.6327 61.9717 63.9729 61.8973 64.3928L61.4348 67H60.781L61.2275 64.4486C61.3338 63.8746 61.1823 63.5875 60.7731 63.5875ZM65.8147 67C65.7722 67.2445 65.7137 67.4731 65.6393 67.6857C65.5702 67.8983 65.4692 68.087 65.3363 68.2518C65.2034 68.4165 65.0254 68.5441 64.8021 68.6345C64.5842 68.7302 64.3078 68.778 63.9729 68.778C63.7603 68.778 63.5477 68.7567 63.3351 68.7142C63.1278 68.6717 62.9178 68.6079 62.7052 68.5229L62.8726 67.9647C63.0693 68.0445 63.2554 68.1003 63.4308 68.1322C63.6115 68.1694 63.7842 68.188 63.949 68.188C64.2467 68.188 64.4752 68.1401 64.6347 68.0445C64.7942 67.9488 64.9111 67.8106 64.9855 67.6299C65.0599 67.4545 65.1184 67.2445 65.1609 67L65.2725 66.3701C65.0333 66.6306 64.8021 66.814 64.5789 66.9203C64.3609 67.0266 64.151 67.0797 63.949 67.0797C63.6832 67.0797 63.4653 66.9973 63.2952 66.8326C63.1251 66.6678 63.0082 66.4419 62.9444 66.1549C62.8806 65.8678 62.8753 65.5436 62.9285 65.1821L62.9843 64.7915C63.0693 64.2121 63.266 63.7656 63.5743 63.452C63.8879 63.1331 64.3078 62.9736 64.834 62.9736C65.1157 62.9736 65.3921 63.0188 65.6632 63.1091C65.9343 63.1942 66.1921 63.3164 66.4366 63.4759L65.8147 67ZM63.6062 65.1821C63.5477 65.6021 63.5636 65.9263 63.654 66.1549C63.7444 66.3781 63.9038 66.4897 64.1324 66.4897C64.3025 66.4897 64.4965 66.4206 64.7144 66.2824C64.9324 66.1442 65.1662 65.8971 65.4161 65.5409L65.727 63.7948C65.4293 63.646 65.145 63.5716 64.8739 63.5716C64.5178 63.5716 64.2414 63.6805 64.0447 63.8985C63.848 64.1164 63.7204 64.4141 63.662 64.7915L63.6062 65.1821ZM70.2117 67.3987C70.031 67.7335 69.8503 68.0019 69.6696 68.2039C69.4941 68.4059 69.2975 68.5521 69.0795 68.6425C68.8669 68.7328 68.6145 68.778 68.3221 68.778L68.4337 68.1322C68.6198 68.1269 68.7766 68.1029 68.9041 68.0604C69.0317 68.0179 69.154 67.9328 69.2709 67.8053C69.3932 67.6777 69.526 67.4837 69.6696 67.2232L69.8131 66.9761L69.1035 63.0533H69.7493L70.0842 64.9748L70.2675 66.1867L70.8655 64.9748L71.8462 63.0533H72.5239L70.427 67L70.2117 67.3987ZM76.158 64.9429L76.0942 65.3416C76.0092 65.905 75.8072 66.3356 75.4883 66.6332C75.1747 66.9309 74.7654 67.0797 74.2604 67.0797C73.8883 67.0797 73.5801 66.9947 73.3355 66.8246C73.0964 66.6545 72.9289 66.4206 72.8332 66.123C72.7376 65.8253 72.719 65.4878 72.7774 65.1104L72.8412 64.7038C72.9316 64.1616 73.1309 63.739 73.4392 63.436C73.7528 63.1277 74.1647 62.9736 74.675 62.9736C75.0524 62.9736 75.3607 63.0613 75.5999 63.2367C75.8391 63.4121 76.0065 63.6487 76.1022 63.9463C76.1979 64.2387 76.2165 64.5709 76.158 64.9429ZM75.4803 64.927C75.5441 64.5284 75.5069 64.2041 75.3687 63.9543C75.2305 63.6992 74.9966 63.5716 74.667 63.5716C74.3588 63.5716 74.1036 63.6699 73.9016 63.8666C73.705 64.0633 73.5774 64.3423 73.5189 64.7038L73.4551 65.1263C73.3914 65.5356 73.4286 65.8652 73.5668 66.115C73.7103 66.3648 73.9442 66.4897 74.2684 66.4897C74.5767 66.4897 74.8292 66.394 75.0258 66.2027C75.2278 66.006 75.358 65.719 75.4165 65.3416L75.4803 64.927ZM79.4187 67L79.5463 66.2824C79.238 66.6067 78.9643 66.8219 78.7251 66.9282C78.4912 67.0292 78.2786 67.0797 78.0872 67.0797C77.7311 67.0797 77.4707 66.9495 77.3059 66.6891C77.1464 66.4286 77.1039 66.0884 77.1783 65.6685L77.6407 63.0533H78.2945L77.848 65.6047C77.7949 65.8971 77.8055 66.115 77.8799 66.2585C77.9597 66.3967 78.0846 66.4658 78.2547 66.4658C78.3557 66.4658 78.4699 66.4445 78.5975 66.402C78.7251 66.3542 78.8739 66.2665 79.044 66.1389C79.2141 66.0113 79.4108 65.828 79.634 65.5888L80.0805 63.0533H80.7343L80.0406 67H79.4187ZM84.1116 63.6354C83.9894 63.6354 83.8432 63.6566 83.6731 63.6992C83.503 63.7364 83.3196 63.8161 83.123 63.9383C82.9316 64.0606 82.735 64.2466 82.533 64.4965L82.0944 67H81.4407L82.1423 63.0533H82.7562L82.6286 63.7948C82.9316 63.46 83.2187 63.2394 83.4897 63.1331C83.7661 63.0268 84.0106 62.9736 84.2233 62.9736L84.1116 63.6354ZM87.165 66.4977C87.4733 66.4977 87.6939 66.4445 87.8268 66.3382C87.965 66.2319 88.0341 66.0937 88.0341 65.9236C88.0341 65.7854 87.9915 65.6738 87.9065 65.5888C87.8215 65.5037 87.6779 65.424 87.476 65.3496L87.0932 65.1981C86.8222 65.0971 86.6175 64.9616 86.4793 64.7915C86.3464 64.6214 86.28 64.4061 86.28 64.1456C86.28 63.933 86.3252 63.739 86.4155 63.5636C86.5112 63.3882 86.6627 63.2473 86.87 63.141C87.0773 63.0294 87.3484 62.9736 87.6833 62.9736C88.0925 62.9736 88.5071 63.0693 88.9271 63.2606L88.7198 63.8187C88.5284 63.7284 88.3477 63.6646 88.1776 63.6274C88.0075 63.5849 87.8374 63.5636 87.6673 63.5636C87.4069 63.5636 87.2182 63.6114 87.1012 63.7071C86.9896 63.8028 86.9338 63.933 86.9338 64.0978C86.9338 64.2147 86.9683 64.3157 87.0374 64.4008C87.1119 64.4858 87.2368 64.5629 87.4122 64.632L87.8028 64.7755C88.0952 64.8818 88.3158 65.02 88.4646 65.1901C88.6134 65.3602 88.6879 65.5808 88.6879 65.8519C88.6879 66.0592 88.6374 66.2585 88.5364 66.4499C88.4354 66.6359 88.2706 66.7874 88.042 66.9043C87.8188 67.0213 87.5211 67.0797 87.1491 67.0797C86.7079 67.0797 86.264 66.9814 85.8176 66.7847L86.0249 66.2346C86.2322 66.3249 86.4288 66.3914 86.6149 66.4339C86.8009 66.4764 86.9843 66.4977 87.165 66.4977ZM91.7624 66.8645C91.4222 67.008 91.1006 67.0797 90.7977 67.0797C90.5266 67.0797 90.3166 67.0213 90.1678 66.9043C90.019 66.7821 89.9233 66.6253 89.8808 66.4339C89.8382 66.2426 89.8356 66.0379 89.8728 65.82L90.2555 63.6274H89.5698L89.6655 63.0533H90.3592L90.5505 61.9531H91.2043L91.0129 63.0533H92.3046L92.2009 63.6274H90.9093L90.5186 65.82C90.4761 66.0645 90.4947 66.2372 90.5744 66.3382C90.6542 66.4339 90.7711 66.4818 90.9252 66.4818C91.0103 66.4818 91.1113 66.4711 91.2282 66.4499C91.3505 66.4233 91.4807 66.3781 91.6189 66.3143L91.7624 66.8645ZM95.2692 63.6354C95.147 63.6354 95.0008 63.6566 94.8307 63.6992C94.6606 63.7364 94.4773 63.8161 94.2806 63.9383C94.0892 64.0606 93.8926 64.2466 93.6906 64.4965L93.2521 67H92.5983L93.2999 63.0533H93.9138L93.7863 63.7948C94.0892 63.46 94.3763 63.2394 94.6474 63.1331C94.9238 63.0268 95.1683 62.9736 95.3809 62.9736L95.2692 63.6354ZM98.4361 66.8405C98.2075 66.9256 97.9869 66.9867 97.7743 67.0239C97.5617 67.0611 97.3597 67.0797 97.1683 67.0797C96.7431 67.0797 96.4082 66.9947 96.1637 66.8246C95.9245 66.6492 95.7651 66.4127 95.6853 66.115C95.6056 65.8173 95.595 65.4825 95.6535 65.1104L95.7252 64.7038C95.8103 64.1829 96.0096 63.7656 96.3232 63.452C96.6421 63.1331 97.0434 62.9736 97.5271 62.9736C97.7663 62.9736 97.9896 63.0161 98.1969 63.1012C98.4095 63.1862 98.5796 63.3191 98.7071 63.4998C98.8347 63.6805 98.8985 63.9118 98.8985 64.1935C98.8985 64.3476 98.8746 64.5124 98.8267 64.6878C98.7842 64.8579 98.7018 65.0439 98.5796 65.2459H96.2754C96.2275 65.6127 96.27 65.913 96.4029 66.1469C96.5358 66.3754 96.8095 66.4897 97.2241 66.4897C97.373 66.4897 97.5431 66.4738 97.7344 66.4419C97.9258 66.4047 98.1251 66.3515 98.3324 66.2824L98.4361 66.8405ZM97.5032 63.5556C97.2002 63.5556 96.9504 63.6566 96.7537 63.8586C96.5571 64.0553 96.4295 64.3317 96.371 64.6878H98.157C98.1995 64.5975 98.2261 64.5124 98.2367 64.4327C98.2527 64.3529 98.2606 64.2785 98.2606 64.2094C98.2606 63.9862 98.1889 63.8214 98.0454 63.7151C97.9019 63.6088 97.7211 63.5556 97.5032 63.5556ZM102.836 67.0399C102.576 67.0399 102.382 66.9761 102.254 66.8485C102.132 66.7156 102.066 66.5509 102.055 66.3542C101.805 66.6253 101.566 66.814 101.337 66.9203C101.109 67.0266 100.893 67.0797 100.691 67.0797C100.431 67.0797 100.216 66.9973 100.046 66.8326C99.8809 66.6678 99.7666 66.4419 99.7028 66.1549C99.639 65.8678 99.6337 65.5436 99.6869 65.1821L99.7427 64.7915C99.8277 64.2227 100.027 63.7789 100.341 63.46C100.654 63.1357 101.066 62.9736 101.576 62.9736C101.842 62.9736 102.105 63.0188 102.366 63.1091C102.632 63.1942 102.887 63.3164 103.131 63.4759L102.701 65.9236C102.674 66.0831 102.679 66.2107 102.717 66.3063C102.754 66.3967 102.839 66.4419 102.972 66.4419H103.083L102.972 67.0399H102.836ZM100.365 65.1821C100.306 65.6021 100.322 65.9263 100.412 66.1549C100.503 66.3781 100.654 66.4897 100.867 66.4897C101.026 66.4897 101.212 66.4206 101.425 66.2824C101.638 66.1442 101.866 65.9024 102.111 65.5569L102.422 63.7869C102.135 63.6433 101.866 63.5716 101.616 63.5716C101.271 63.5716 100.997 63.6859 100.795 63.9144C100.598 64.1377 100.474 64.43 100.42 64.7915L100.365 65.1821ZM106.415 63.5875C106.266 63.5875 106.08 63.646 105.857 63.7629C105.639 63.8746 105.362 64.1111 105.027 64.4725L104.581 67H103.927L104.629 63.0533H105.243L105.123 63.7709C105.431 63.4467 105.705 63.2341 105.944 63.1331C106.184 63.0268 106.399 62.9736 106.59 62.9736C106.851 62.9736 107.061 63.048 107.22 63.1968C107.38 63.3457 107.478 63.5477 107.515 63.8028C107.829 63.4679 108.113 63.2473 108.368 63.141C108.623 63.0294 108.849 62.9736 109.046 62.9736C109.402 62.9736 109.66 63.1038 109.819 63.3643C109.984 63.6247 110.029 63.9676 109.955 64.3928L109.492 67H108.839L109.293 64.4486C109.346 64.1616 109.333 63.9463 109.253 63.8028C109.173 63.6593 109.046 63.5875 108.87 63.5875C108.775 63.5875 108.661 63.6114 108.528 63.6593C108.4 63.7071 108.251 63.7948 108.081 63.9224C107.911 64.0447 107.712 64.228 107.483 64.4725L107.037 67H106.383L106.829 64.4486C106.883 64.1616 106.869 63.9463 106.79 63.8028C106.715 63.6593 106.59 63.5875 106.415 63.5875Z" fill="#DBFF00"/>
<path d="M33.041 37C33.199 37.0002 33.3569 37.0073 33.5143 37.0213C34.016 37.0653 34.3847 37.4434 34.4995 37.8869L34.6939 38.648C34.7061 38.6933 34.7473 38.7566 34.8371 38.802C34.993 38.8803 35.1436 38.969 35.2881 39.0673C35.3711 39.1237 35.4454 39.1292 35.49 39.1162L36.2347 38.9078C36.6695 38.7868 37.1746 38.9223 37.4636 39.341C37.6459 39.6057 37.8052 39.8855 37.9389 40.1784C38.1516 40.6424 38.0139 41.156 37.6931 41.4784L37.1435 42.0326C37.1105 42.0656 37.0774 42.1336 37.0841 42.2347C37.0949 42.4114 37.0949 42.5888 37.0841 42.7655C37.0774 42.8665 37.1098 42.9346 37.1435 42.9676L37.6931 43.5217C38.0139 43.8442 38.1516 44.3577 37.9389 44.8218C37.805 45.1144 37.6459 45.3944 37.4636 45.6585C37.1746 46.0779 36.6695 46.2133 36.2347 46.0916L35.4907 45.884C35.4454 45.871 35.3711 45.8765 35.2881 45.9328C35.1436 46.0312 34.9929 46.1198 34.8371 46.1982C34.7473 46.2436 34.7061 46.3068 34.6946 46.3522L34.4988 47.1126C34.3853 47.5567 34.016 47.9349 33.5143 47.9789C33.1994 48.007 32.8826 48.007 32.5677 47.9789C32.066 47.9349 31.6974 47.5567 31.5833 47.1126L31.3881 46.3522C31.376 46.3068 31.3348 46.2436 31.245 46.1982C31.089 46.1202 30.9383 46.0315 30.794 45.9328C30.7109 45.8765 30.6366 45.871 30.5921 45.884L29.8473 46.0923C29.4125 46.2133 28.9075 46.0779 28.6185 45.6592C28.4365 45.3946 28.2775 45.1144 28.1431 44.8218C27.9304 44.3577 28.0682 43.8442 28.3882 43.5217L28.9385 42.9676C28.9723 42.9346 29.0047 42.8665 28.9979 42.7655C28.9871 42.5887 28.9871 42.4115 28.9979 42.2347C29.0047 42.1336 28.9723 42.0656 28.9385 42.0326L28.3882 41.4784C28.0682 41.156 27.9304 40.6424 28.1431 40.1784C28.2769 39.8857 28.436 39.6057 28.6185 39.3417C28.9075 38.9223 29.4125 38.7868 29.8473 38.9085L30.5914 39.1162C30.6366 39.1292 30.7109 39.1237 30.794 39.0673C30.9385 38.969 31.089 38.8803 31.245 38.802C31.3348 38.7566 31.376 38.6933 31.3875 38.648L31.5833 37.8876C31.6967 37.4434 32.066 37.0653 32.5677 37.0206C32.7237 37.0069 32.8817 37 33.041 37ZM32.6555 38.0485C32.6312 38.0505 32.5826 38.0732 32.563 38.1488L32.3679 38.9085C32.2686 39.2942 31.9972 39.5734 31.694 39.726C31.5772 39.7851 31.4644 39.8518 31.3564 39.9254C31.0748 40.1165 30.7015 40.2162 30.324 40.111L29.5793 39.9027C29.5057 39.882 29.4611 39.9137 29.4476 39.9336C29.2991 40.1481 29.1694 40.3764 29.0607 40.6142C29.0513 40.6356 29.0466 40.6899 29.1006 40.7449L29.6509 41.299C29.9284 41.5781 30.0303 41.957 30.0087 42.3C30.0006 42.4333 30.0006 42.5669 30.0087 42.7002C30.0303 43.0432 29.9284 43.422 29.6509 43.7012L29.1006 44.2553C29.0459 44.3103 29.0513 44.3646 29.0607 44.3859C29.1701 44.6238 29.2991 44.8514 29.4476 45.0659C29.4611 45.0865 29.505 45.1181 29.5793 45.0975L30.3234 44.8892C30.7015 44.784 31.0748 44.8837 31.3564 45.0748C31.4651 45.1484 31.5779 45.2151 31.6947 45.2742C31.9965 45.4268 32.2686 45.7066 32.3679 46.0916L32.563 46.8513C32.5826 46.9263 32.6312 46.9497 32.6555 46.9517C32.912 46.9744 33.17 46.9744 33.4266 46.9517C33.4509 46.9497 33.4995 46.927 33.5191 46.8513L33.7142 46.0916C33.8135 45.7059 34.0849 45.4268 34.388 45.2742C34.5049 45.2151 34.6176 45.1484 34.7256 45.0748C35.0072 44.8837 35.3806 44.784 35.758 44.8892L36.5028 45.0975C36.5764 45.1174 36.6209 45.0865 36.6344 45.0666C36.783 44.8514 36.9119 44.6238 37.0213 44.3859C37.0308 44.3646 37.0355 44.3103 36.9815 44.2553L36.4312 43.7012C36.1537 43.422 36.0517 43.0432 36.0733 42.7002C36.0814 42.5669 36.0814 42.4333 36.0733 42.3C36.0517 41.957 36.1537 41.5781 36.4312 41.299L36.9815 40.7449C37.0362 40.6899 37.0308 40.6356 37.0213 40.6142C36.9123 40.3764 36.7829 40.1489 36.6344 39.9343C36.6209 39.9137 36.577 39.882 36.5028 39.9027L35.7587 40.111C35.3806 40.2162 35.0072 40.1165 34.7256 39.9254C34.6173 39.8515 34.5043 39.7849 34.3874 39.726C34.0856 39.5734 33.8135 39.2935 33.7142 38.9085L33.5191 38.1488C33.4995 38.0732 33.4509 38.0505 33.4266 38.0485C33.17 38.0258 32.912 38.0258 32.6555 38.0485ZM35.0666 42.5001C35.0666 43.0471 34.8532 43.5717 34.4733 43.9585C34.0935 44.3453 33.5782 44.5626 33.041 44.5626C32.5038 44.5626 31.9886 44.3453 31.6087 43.9585C31.2288 43.5717 31.0154 43.0471 31.0154 42.5001C31.0154 41.9531 31.2288 41.4285 31.6087 41.0417C31.9886 40.6549 32.5038 40.4376 33.041 40.4376C33.5782 40.4376 34.0935 40.6549 34.4733 41.0417C34.8532 41.4285 35.0666 41.9531 35.0666 42.5001ZM34.0538 42.5001C34.0537 42.2265 33.9469 41.9641 33.7568 41.7707C33.5668 41.5773 33.3091 41.4687 33.0404 41.4688C32.7717 41.4689 32.514 41.5777 32.3241 41.7712C32.1341 41.9647 32.0275 42.2272 32.0276 42.5008C32.0276 42.7744 32.1345 43.0367 32.3245 43.2301C32.4186 43.3259 32.5304 43.4018 32.6533 43.4536C32.7762 43.5054 32.908 43.5321 33.041 43.532C33.1741 43.532 33.3058 43.5053 33.4287 43.4534C33.5516 43.4015 33.6633 43.3255 33.7573 43.2296C33.8514 43.1338 33.926 43.0201 33.9768 42.8949C34.0277 42.7697 34.0539 42.6356 34.0538 42.5001Z" fill="#DBFF00"/>
<path d="M59.8712 42.5C60.0079 42.5792 60.1411 42.6643 60.2704 42.7551C60.6829 43.0441 60.8131 43.5559 60.6907 43.9973L60.4786 44.7536C60.4665 44.799 60.4705 44.8744 60.5256 44.9586C60.6215 45.1044 60.7075 45.2565 60.7835 45.4139C60.8272 45.5043 60.8888 45.5462 60.9339 45.5571L61.683 45.7491C62.1201 45.8617 62.4898 46.2315 62.5307 46.7386C62.5562 47.059 62.5543 47.381 62.5237 47.7015C62.4758 48.2097 62.0998 48.5856 61.6608 48.7045L60.9077 48.9096C60.8626 48.9216 60.7999 48.964 60.7552 49.0549C60.6762 49.2134 60.5875 49.367 60.4898 49.5146C60.4335 49.5987 60.4275 49.6739 60.4402 49.7193L60.6391 50.474C60.7557 50.9137 60.6182 51.4273 60.2019 51.7228C59.9396 51.9093 59.6619 52.0722 59.3719 52.2098C58.912 52.4285 58.4069 52.2932 58.0911 51.9704L57.5506 51.4186C57.5179 51.3847 57.4509 51.3523 57.3508 51.3596C57.1764 51.3725 57.0016 51.374 56.8275 51.3639C56.727 51.3583 56.6597 51.3925 56.6271 51.426L56.0773 51.9866C55.757 52.3146 55.2481 52.4574 54.7916 52.2446C54.5048 52.1116 54.2305 51.9532 53.9718 51.7713C53.5594 51.4824 53.4292 50.9706 53.5524 50.5289L53.7636 49.7728C53.7758 49.7274 53.7717 49.6521 53.7166 49.5679C53.6206 49.4223 53.5344 49.2701 53.4587 49.1125C53.415 49.0222 53.3534 48.9803 53.3083 48.9693L52.5592 48.7773C52.1221 48.6647 51.7524 48.2949 51.7115 47.7878C51.6862 47.4677 51.6886 47.1455 51.7185 46.8249C51.7664 46.3167 52.1425 45.9408 52.5808 45.8216L53.3345 45.6168C53.3802 45.6051 53.4423 45.5624 53.487 45.4715C53.566 45.313 53.6546 45.1595 53.7524 45.0118C53.8088 44.9277 53.8147 44.8526 53.802 44.8071L53.6025 44.0521C53.4865 43.6128 53.624 43.0992 54.0403 42.8036C54.3025 42.617 54.5802 42.4541 54.8703 42.3167C55.3302 42.098 55.8353 42.2332 56.1511 42.556L56.6916 43.1078C56.7243 43.1418 56.7914 43.1741 56.8915 43.1668C57.0658 43.154 57.2405 43.1524 57.4148 43.1625C57.5152 43.1681 57.5825 43.134 57.6151 43.1004L58.1649 42.5398C58.4852 42.2119 58.9941 42.0691 59.4509 42.2812C59.5929 42.3473 59.7332 42.4203 59.8712 42.5ZM59.013 43.2152C58.991 43.2049 58.9375 43.2002 58.8827 43.2559L58.3339 43.8163C58.0551 44.1006 57.6805 44.2067 57.3416 44.1873C57.2109 44.1801 57.0799 44.1814 56.9495 44.1911C56.6101 44.2159 56.2369 44.1155 55.9627 43.8357L55.4219 43.2829C55.3684 43.2283 55.314 43.2334 55.2924 43.2439C55.0565 43.3554 54.8301 43.4882 54.617 43.6399C54.5981 43.6536 54.5669 43.6983 54.5862 43.7729L54.7857 44.528C54.8864 44.9085 54.7853 45.2875 54.5951 45.5738C54.5214 45.6851 54.4546 45.8009 54.395 45.9203C54.2422 46.2282 53.9645 46.5053 53.5846 46.6083L52.831 46.8131C52.7561 46.8333 52.7336 46.8831 52.7311 46.9063C52.7069 47.167 52.7048 47.4285 52.7262 47.6886C52.7276 47.7132 52.7498 47.7625 52.8244 47.7818L53.573 47.9734C53.953 48.0714 54.2265 48.3444 54.3748 48.6507C54.4322 48.7688 54.4965 48.8829 54.5681 48.9925C54.7532 49.2756 54.8489 49.654 54.7423 50.037L54.5315 50.7925C54.511 50.8672 54.5414 50.9117 54.5614 50.9257C54.7722 51.0736 54.9957 51.2026 55.2292 51.3112C55.2513 51.3216 55.3047 51.3262 55.3595 51.2705L55.9083 50.7102C56.1871 50.4258 56.5618 50.3198 56.9006 50.3392C57.0313 50.3464 57.1623 50.345 57.2927 50.3353C57.6321 50.3106 58.0053 50.4109 58.2796 50.6907L58.8204 51.2435C58.8741 51.2976 58.9282 51.2931 58.9499 51.2826C59.1861 51.1705 59.4116 51.0379 59.6252 50.8866C59.6441 50.8728 59.6753 50.8282 59.656 50.7535L59.4565 49.9985C59.3558 49.618 59.4569 49.2389 59.6471 48.9526C59.7208 48.8413 59.7876 48.7256 59.8472 48.6061C60 48.2982 60.2777 48.0211 60.6576 47.9181L61.4113 47.7134C61.4861 47.6931 61.5086 47.6434 61.5111 47.6202C61.5356 47.3597 61.5372 47.0979 61.516 46.8379C61.5146 46.8133 61.4924 46.7639 61.4178 46.7447L60.6692 46.553C60.2892 46.4551 60.0157 46.1821 59.8674 45.8758C59.8105 45.7576 59.7459 45.6434 59.6741 45.5339C59.4891 45.2509 59.3933 44.8725 59.4999 44.4894L59.7107 43.7339C59.7316 43.6587 59.7008 43.6147 59.6808 43.6008C59.47 43.4528 59.2466 43.3239 59.013 43.2152ZM58.8753 48.276C58.6018 48.7498 58.1547 49.0974 57.6323 49.2424C57.1099 49.3875 56.5551 49.318 56.0898 49.0494C55.6246 48.7808 55.2871 48.335 55.1515 47.8101C55.0159 47.2852 55.0934 46.7242 55.3669 46.2504C55.6404 45.7767 56.0875 45.4291 56.6099 45.284C57.1323 45.139 57.6871 45.2084 58.1524 45.477C58.6176 45.7456 58.9552 46.1914 59.0907 46.7163C59.2263 47.2413 59.1488 47.8023 58.8753 48.276ZM57.9982 47.7696C58.1349 47.5326 58.1736 47.252 58.1057 46.9895C58.0378 46.727 57.8689 46.5041 57.6362 46.3698C57.4034 46.2355 57.1259 46.2009 56.8646 46.2735C56.6034 46.3461 56.3798 46.5201 56.2431 46.7571C56.1063 46.9941 56.0677 47.2747 56.1356 47.5372C56.1692 47.6672 56.228 47.7888 56.3085 47.8952C56.3891 48.0015 56.4899 48.0904 56.6051 48.1569C56.7204 48.2234 56.8478 48.2661 56.9802 48.2826C57.1126 48.2992 57.2473 48.2891 57.3767 48.2532C57.506 48.2172 57.6275 48.156 57.7341 48.073C57.8408 47.9901 57.9305 47.887 57.9982 47.7696Z" fill="#DBFF00"/>
<path d="M77.7176 36.2941C77.8701 36.3352 78.0208 36.3829 78.1693 36.4372C78.6424 36.6095 78.9007 37.0702 78.8968 37.5282L78.8876 38.3137C78.8876 38.3607 78.911 38.4324 78.986 38.4995C79.1164 38.6156 79.2389 38.7402 79.353 38.8726C79.4186 38.9485 79.489 38.9731 79.5354 38.972L80.3087 38.9635C80.76 38.9592 81.2128 39.2207 81.3836 39.6999C81.4911 40.0028 81.5726 40.3143 81.626 40.6318C81.7113 41.1351 81.4453 41.5956 81.0521 41.824L80.3778 42.217C80.3373 42.2403 80.2877 42.2975 80.2681 42.3969C80.2328 42.5703 80.1869 42.7417 80.1307 42.9095C80.098 43.0054 80.1117 43.0795 80.1358 43.1202L80.5232 43.7977C80.7496 44.1921 80.7497 44.7238 80.4241 45.1171C80.219 45.365 79.9929 45.5943 79.7485 45.8022C79.3608 46.1325 78.8379 46.1326 78.4494 45.9025L77.7844 45.5094C77.7441 45.4851 77.6709 45.4712 77.5761 45.5041C77.411 45.5617 77.2426 45.6084 77.0717 45.6437C76.9733 45.6643 76.9171 45.7148 76.8943 45.7556L76.5083 46.4394C76.2838 46.8391 75.8292 47.1087 75.3332 47.0214C75.0217 46.9671 74.7158 46.8851 74.4189 46.7764C73.9457 46.604 73.6874 46.1434 73.6922 45.6848L73.7005 44.8998C73.7005 44.8529 73.6771 44.7811 73.6021 44.714C73.4716 44.5983 73.349 44.4736 73.2351 44.341C73.1695 44.265 73.0992 44.2405 73.0527 44.2416L72.2794 44.25C71.8281 44.2544 71.3753 43.9928 71.2046 43.5136C71.0973 43.2109 71.0162 42.8991 70.9621 42.5817C70.8768 42.0784 71.1428 41.618 71.5354 41.3894L72.2103 40.9965C72.2515 40.9734 72.3004 40.916 72.32 40.8167C72.3554 40.6432 72.4012 40.4719 72.4574 40.304C72.4901 40.2081 72.4764 40.134 72.4523 40.0934L72.0642 39.4157C71.8385 39.0214 71.8384 38.4897 72.164 38.0965C72.3689 37.8484 72.5951 37.6191 72.8397 37.4113C73.2273 37.081 73.7502 37.0809 74.1387 37.311L74.8037 37.7041C74.844 37.7285 74.9172 37.7424 75.012 37.7094C75.177 37.6519 75.3454 37.6052 75.5164 37.5698C75.6149 37.5492 75.671 37.4988 75.6938 37.4579L76.0798 36.7741C76.3043 36.3745 76.7589 36.1048 77.2551 36.1915C77.4093 36.2186 77.5637 36.2529 77.7176 36.2941ZM77.0738 37.207C77.0498 37.2027 76.997 37.2121 76.9585 37.2801L76.5734 37.9634C76.3777 38.3102 76.0433 38.5096 75.7109 38.5786C75.5828 38.6054 75.4566 38.6407 75.3332 38.6838C75.0118 38.7955 74.6253 38.7952 74.288 38.5959L73.6225 38.2019C73.5568 38.1629 73.5055 38.1819 73.4873 38.1977C73.2883 38.3665 73.104 38.5534 72.9375 38.755C72.9228 38.7732 72.9042 38.8244 72.9421 38.8915L73.3303 39.5692C73.5261 39.9106 73.5265 40.3029 73.4168 40.6287C73.3745 40.7553 73.3399 40.8844 73.3133 41.0152C73.2454 41.3522 73.0488 41.6917 72.7085 41.8895L72.0336 42.2823C71.9665 42.3213 71.9577 42.3751 71.9613 42.3982C72.0054 42.6563 72.071 42.9095 72.159 43.1551C72.1667 43.1785 72.2009 43.2204 72.278 43.2197L73.0506 43.2111C73.4431 43.2073 73.7779 43.4003 74.0004 43.6578C74.0864 43.757 74.1781 43.8506 74.2756 43.9379C74.5276 44.1634 74.718 44.5041 74.7143 44.9017L74.7061 45.686C74.7056 45.7635 74.7465 45.7987 74.7695 45.8069C75.0114 45.8952 75.2606 45.962 75.5143 46.0065C75.5383 46.0108 75.5911 46.0015 75.6296 45.9335L76.0147 45.2502C76.2104 44.9033 76.5448 44.704 76.8772 44.635C77.0053 44.6081 77.1315 44.5729 77.2549 44.5298C77.5763 44.418 77.9628 44.4184 78.3001 44.6177L78.9656 45.0117C79.0315 45.05 79.0826 45.0316 79.1008 45.0158C79.2999 44.8464 79.4834 44.66 79.6506 44.4585C79.6653 44.4404 79.6839 44.3892 79.646 44.322L79.2578 43.6444C79.062 43.3029 79.0616 42.9106 79.1713 42.5848C79.2136 42.4582 79.2482 42.3292 79.2748 42.1983C79.3428 41.8614 79.5393 41.5219 79.8796 41.3241L80.5545 40.9312C80.6216 40.8923 80.6304 40.8384 80.6268 40.8154C80.5831 40.5574 80.5169 40.3041 80.4291 40.0585C80.4214 40.035 80.3872 39.9931 80.3101 39.9938L79.5375 40.0025C79.145 40.0062 78.8102 39.8133 78.5877 39.5558C78.5021 39.4564 78.4102 39.3628 78.3125 39.2757C78.0605 39.0501 77.8701 38.7094 77.8739 38.3118L77.882 37.5275C77.8827 37.4494 77.8416 37.4149 77.8186 37.4066C77.5767 37.3183 77.3275 37.2515 77.0738 37.207ZM78.2506 42.131C78.1091 42.6594 77.7671 43.1109 77.3001 43.3862C76.8331 43.6615 76.2791 43.7381 75.7602 43.599C75.2413 43.46 74.7999 43.1167 74.5331 42.6448C74.2663 42.1729 74.1959 41.6109 74.3375 41.0825C74.4791 40.5541 74.821 40.1026 75.288 39.8273C75.7551 39.552 76.309 39.4755 76.8279 39.6145C77.3468 39.7536 77.7882 40.0968 78.055 40.5687C78.3218 41.0407 78.3922 41.6027 78.2506 42.131ZM77.2723 41.8689C77.3431 41.6046 77.3078 41.3235 77.1743 41.0875C77.0407 40.8515 76.8199 40.6799 76.5603 40.6105C76.3007 40.541 76.0237 40.5794 75.7902 40.7172C75.5566 40.8549 75.3857 41.0808 75.3149 41.3451C75.2442 41.6094 75.2795 41.8905 75.413 42.1265C75.4791 42.2434 75.5674 42.3456 75.6727 42.4275C75.7781 42.5093 75.8984 42.5692 76.027 42.6036C76.1555 42.638 76.2897 42.6462 76.4218 42.6279C76.5539 42.6096 76.6815 42.5651 76.7971 42.4969C76.9128 42.4286 77.0143 42.3381 77.0958 42.2303C77.1773 42.1226 77.2373 41.9998 77.2723 41.8689Z" fill="#DBFF00"/>
<path d="M100.534 41.5835C100.678 41.6481 100.82 41.7189 100.958 41.7958C101.398 42.0403 101.581 42.5358 101.505 42.9875L101.372 43.7618C101.365 43.8082 101.377 43.8827 101.44 43.9608C101.551 44.0959 101.652 44.2382 101.744 44.3868C101.797 44.4721 101.863 44.5074 101.909 44.5136L102.674 44.6267C103.12 44.6933 103.526 45.0227 103.62 45.5228C103.678 45.8388 103.71 46.1592 103.713 46.4812C103.718 46.9916 103.383 47.4046 102.959 47.5684L102.231 47.8507C102.188 47.8673 102.13 47.916 102.095 48.0111C102.033 48.1769 101.96 48.3389 101.878 48.4958C101.831 48.5854 101.833 48.6607 101.85 48.7046L102.127 49.4346C102.288 49.8597 102.205 50.3848 101.822 50.722C101.58 50.9347 101.321 51.1256 101.047 51.2926C100.612 51.5579 100.096 51.4759 99.748 51.1877L99.153 50.695C99.117 50.6647 99.0469 50.6394 98.9481 50.6571C98.7761 50.6881 98.6024 50.7077 98.4281 50.7158C98.3276 50.7206 98.2642 50.7616 98.2353 50.7984L97.7467 51.4131C97.4623 51.7725 96.9709 51.9675 96.4948 51.8033C96.1957 51.7008 95.9064 51.5718 95.6303 51.4178C95.19 51.1733 95.0073 50.6778 95.084 50.2257L95.2155 49.4517C95.2229 49.4053 95.211 49.3308 95.1475 49.2528C95.0368 49.118 94.9353 48.9756 94.8436 48.8267C94.7907 48.7414 94.7251 48.7061 94.6791 48.6999L93.9141 48.5868C93.4677 48.5203 93.0616 48.1909 92.9682 47.6908C92.9098 47.375 92.8786 47.0543 92.8751 46.7324C92.8699 46.2219 93.2048 45.809 93.6285 45.6448L94.3567 45.3629C94.401 45.3465 94.4583 45.2975 94.4933 45.2025C94.5554 45.0366 94.6276 44.8748 94.7095 44.7177C94.7568 44.6282 94.7549 44.5528 94.7375 44.5089L94.4607 43.7787C94.2997 43.3539 94.383 42.8287 94.7663 42.4915C95.0077 42.2787 95.267 42.0877 95.5412 41.921C95.9759 41.6556 96.4924 41.7376 96.8399 42.0259L97.4349 42.5185C97.4709 42.5489 97.541 42.5741 97.6398 42.5565C97.8118 42.5255 97.9855 42.5058 98.1598 42.4978C98.2603 42.4929 98.3237 42.4519 98.3527 42.4152L98.8412 41.8004C99.1257 41.441 99.617 41.2461 100.093 41.4096C100.241 41.4606 100.389 41.5186 100.534 41.5835ZM99.7549 42.3841C99.7319 42.3761 99.6782 42.377 99.6296 42.4381L99.1419 43.0524C98.8942 43.3643 98.5326 43.5086 98.1936 43.5246C98.0628 43.531 97.9327 43.546 97.804 43.5692C97.469 43.629 97.0874 43.568 96.7856 43.3182L96.1902 42.8246C96.1314 42.7758 96.0778 42.7866 96.0574 42.7993C95.8343 42.9347 95.623 43.0903 95.4268 43.2633C95.4095 43.2789 95.3831 43.3266 95.41 43.3989L95.6869 44.1291C95.8267 44.497 95.7655 44.8845 95.606 45.189C95.5444 45.3074 95.4899 45.4295 95.4431 45.5545C95.3231 45.8766 95.0757 46.1811 94.7085 46.323L93.9803 46.6049C93.9079 46.6329 93.8907 46.6847 93.8907 46.708C93.8937 46.9698 93.9188 47.2302 93.9671 47.4866C93.971 47.5109 93.9982 47.5577 94.0745 47.5691L94.8389 47.6819C95.227 47.7398 95.5275 47.9829 95.7068 48.2722C95.7761 48.3836 95.8519 48.4905 95.9345 48.592C96.148 48.8544 96.2825 49.2207 96.2164 49.6128L96.0852 50.3861C96.0725 50.4625 96.1074 50.5037 96.1288 50.5154C96.3538 50.6406 96.5895 50.7457 96.833 50.8295C96.856 50.8375 96.9097 50.8366 96.9584 50.7755L97.446 50.1611C97.6937 49.8493 98.0553 49.7049 98.3944 49.689C98.5251 49.6826 98.6553 49.6676 98.7839 49.6444C99.1189 49.5845 99.5005 49.6455 99.8024 49.8953L100.398 50.3889C100.457 50.4371 100.51 50.427 100.531 50.4143C100.754 50.2782 100.964 50.1229 101.161 49.9502C101.178 49.9346 101.205 49.8869 101.178 49.8147L100.901 49.0845C100.761 48.7165 100.822 48.329 100.982 48.0245C101.044 47.9061 101.098 47.7841 101.145 47.6591C101.265 47.3369 101.512 47.0325 101.879 46.8906L102.608 46.6086C102.68 46.5807 102.697 46.5289 102.697 46.5055C102.695 46.2439 102.669 45.9834 102.621 45.727C102.617 45.7026 102.59 45.6559 102.513 45.6445L101.749 45.5317C101.361 45.4737 101.06 45.2306 100.881 44.9414C100.812 44.8298 100.736 44.7229 100.653 44.6215C100.44 44.3592 100.305 43.9928 100.372 43.6008L100.503 42.8275C100.516 42.7504 100.481 42.7099 100.459 42.6981C100.234 42.5729 99.9985 42.4678 99.7549 42.3841ZM100.144 47.4318C99.9212 47.9314 99.5126 48.3236 99.0081 48.5221C98.5036 48.7207 97.9446 48.7093 97.4539 48.4905C96.9633 48.2717 96.5812 47.8634 96.3918 47.3554C96.2024 46.8474 96.2212 46.2814 96.444 45.7818C96.6668 45.2822 97.0753 44.89 97.5798 44.6914C98.0843 44.4929 98.6434 44.5043 99.134 44.7231C99.6246 44.9419 100.007 45.3502 100.196 45.8581C100.385 46.3661 100.367 46.9322 100.144 47.4318ZM99.219 47.0193C99.3303 46.7694 99.3396 46.4862 99.2448 46.2322C99.15 45.9782 98.9588 45.774 98.7134 45.6646C98.4679 45.5553 98.1883 45.5497 97.936 45.6491C97.6837 45.7485 97.4794 45.9447 97.3681 46.1946C97.2567 46.4446 97.2474 46.7277 97.3423 46.9817C97.3892 47.1075 97.4603 47.2224 97.5515 47.3197C97.6427 47.4171 97.7521 47.4951 97.8737 47.5493C97.9952 47.6034 98.1264 47.6327 98.2598 47.6353C98.3932 47.638 98.5261 47.614 98.651 47.5648C98.7759 47.5156 98.8904 47.4421 98.9878 47.3485C99.0853 47.2549 99.1638 47.143 99.219 47.0193Z" fill="#DBFF00"/>
</svg>
